<svg width="19" height="19" viewBox="0 0 19 19" fill="none" xmlns="http://www.w3.org/2000/svg">
<g id="Group">
<path id="Vector" d="M13.7924 0H4.22216C1.89033 0 0 1.89031 0 4.22213V13.7923C0 16.1241 1.89033 18.0144 4.22216 18.0144H13.7924C16.1242 18.0144 18.0146 16.1241 18.0146 13.7923V4.22213C18.0146 1.89031 16.1242 0 13.7924 0Z" fill="url(#paint0_radial_1_221)"/>
<path id="Vector_2" d="M13.7924 0H4.22216C1.89033 0 0 1.89031 0 4.22213V13.7923C0 16.1241 1.89033 18.0144 4.22216 18.0144H13.7924C16.1242 18.0144 18.0146 16.1241 18.0146 13.7923V4.22213C18.0146 1.89031 16.1242 0 13.7924 0Z" fill="url(#paint1_radial_1_221)"/>
<path id="Vector_3" d="M9.0073 1.97035C7.09621 1.97035 6.85632 1.97873 6.10576 2.01285C5.3566 2.04719 4.84523 2.16577 4.39782 2.33979C3.93493 2.51951 3.54234 2.75996 3.15123 3.15121C2.75976 3.54239 2.51931 3.93498 2.33903 4.39765C2.16451 4.8452 2.0458 5.35678 2.01209 6.10557C1.97852 6.85619 1.96973 7.09615 1.96973 9.0073C1.96973 10.9184 1.97817 11.1576 2.01223 11.9081C2.04671 12.6573 2.16528 13.1686 2.33917 13.616C2.51903 14.0789 2.75948 14.4715 3.15074 14.8626C3.54178 15.2541 3.93437 15.4951 4.39691 15.6748C4.84467 15.8488 5.35611 15.9674 6.10512 16.0017C6.85575 16.0359 7.09543 16.0442 9.00645 16.0442C10.9178 16.0442 11.1569 16.0359 11.9074 16.0017C12.6566 15.9674 13.1685 15.8488 13.6163 15.6748C14.079 15.4951 14.471 15.2541 14.862 14.8626C15.2534 14.4715 15.4938 14.0789 15.6742 13.6162C15.8471 13.1686 15.9659 12.6571 16.0011 11.9082C16.0348 11.1577 16.0436 10.9184 16.0436 9.0073C16.0436 7.09615 16.0348 6.85633 16.0011 6.10571C15.9659 5.35657 15.8471 4.84527 15.6742 4.39786C15.4938 3.93498 15.2534 3.54239 14.862 3.15121C14.4706 2.75982 14.0791 2.51937 13.6159 2.33986C13.1673 2.16577 12.6556 2.04712 11.9064 2.01285C11.1558 1.97873 10.9168 1.97035 9.00512 1.97035H9.0073ZM8.37601 3.23847C8.56341 3.23819 8.77247 3.23847 9.0073 3.23847C10.8862 3.23847 11.1089 3.24522 11.8509 3.27893C12.537 3.31031 12.9093 3.42494 13.1574 3.52128C13.4858 3.64879 13.7199 3.80128 13.9661 4.04764C14.2124 4.29393 14.3648 4.52847 14.4927 4.85688C14.589 5.10458 14.7038 5.47697 14.735 6.16306C14.7687 6.90489 14.776 7.12768 14.776 9.00568C14.776 10.8837 14.7687 11.1065 14.735 11.8483C14.7036 12.5344 14.589 12.9068 14.4927 13.1545C14.3652 13.483 14.2124 13.7168 13.9661 13.9629C13.7198 14.2092 13.486 14.3617 13.1574 14.4892C12.9096 14.586 12.537 14.7003 11.8509 14.7317C11.109 14.7654 10.8862 14.7727 9.0073 14.7727C7.12829 14.7727 6.90557 14.7654 6.16381 14.7317C5.47771 14.7001 5.10532 14.5854 4.85705 14.4891C4.52871 14.3615 4.2941 14.2091 4.0478 13.9628C3.80151 13.7165 3.64909 13.4825 3.52123 13.154C3.42489 12.9062 3.31012 12.5338 3.27888 11.8477C3.24517 11.1059 3.23842 10.8831 3.23842 9.00392C3.23842 7.12479 3.24517 6.90313 3.27888 6.1613C3.31026 5.47521 3.42489 5.10282 3.52123 4.85477C3.64881 4.52636 3.80151 4.29182 4.04787 4.04553C4.29417 3.79924 4.52871 3.64675 4.85712 3.51896C5.10517 3.4222 5.47771 3.30785 6.16381 3.27633C6.81297 3.24698 7.06454 3.23819 8.37601 3.23671V3.23847ZM12.7636 4.40687C12.2974 4.40687 11.9192 4.78475 11.9192 5.25101C11.9192 5.71721 12.2974 6.09544 12.7636 6.09544C13.2298 6.09544 13.608 5.71721 13.608 5.25101C13.608 4.78482 13.2298 4.40659 12.7636 4.40659V4.40687ZM9.0073 5.39351C7.01162 5.39351 5.39355 7.01157 5.39355 9.0073C5.39355 11.003 7.01162 12.6203 9.0073 12.6203C11.003 12.6203 12.6206 11.003 12.6206 9.0073C12.6206 7.01164 11.0029 5.39351 9.00716 5.39351H9.0073ZM9.0073 6.66162C10.3027 6.66162 11.353 7.71174 11.353 9.0073C11.353 10.3027 10.3027 11.353 9.0073 11.353C7.7118 11.353 6.66167 10.3027 6.66167 9.0073C6.66167 7.71174 7.7118 6.66162 9.0073 6.66162Z" fill="white"/>
</g>
<defs>
<radialGradient id="paint0_radial_1_221" cx="0" cy="0" r="1" gradientUnits="userSpaceOnUse" gradientTransform="translate(4.78512 19.4019) rotate(-90) scale(17.8536 16.6054)">
<stop stop-color="#FFDD55"/>
<stop offset="0.1" stop-color="#FFDD55"/>
<stop offset="0.5" stop-color="#FF543E"/>
<stop offset="1" stop-color="#C837AB"/>
</radialGradient>
<radialGradient id="paint1_radial_1_221" cx="0" cy="0" r="1" gradientUnits="userSpaceOnUse" gradientTransform="translate(-3.01751 1.29767) rotate(78.6809) scale(7.98067 32.8968)">
<stop stop-color="#3771C8"/>
<stop offset="0.128" stop-color="#3771C8"/>
<stop offset="1" stop-color="#6600FF" stop-opacity="0"/>
</radialGradient>
</defs>
</svg>
