<svg width="25" height="24" viewBox="0 0 25 24" fill="none" xmlns="http://www.w3.org/2000/svg">
<g id="search (2) 2">
<path id="Layer 2" d="M21.4114 19.725L17.3914 15.69C18.5472 14.3104 19.184 12.5698 19.1914 10.77C19.1914 9.23028 18.7348 7.72513 17.8793 6.44489C17.0239 5.16465 15.8081 4.16683 14.3855 3.5776C12.963 2.98837 11.3977 2.8342 9.88758 3.13459C8.37744 3.43498 6.99028 4.17643 5.90153 5.26518C4.81278 6.35393 4.07133 7.74108 3.77094 9.25123C3.47056 10.7614 3.62473 12.3267 4.21395 13.7492C4.80318 15.1717 5.80101 16.3876 7.08124 17.243C8.36148 18.0984 9.86663 18.555 11.4064 18.555C13.2062 18.5477 14.9467 17.9109 16.3264 16.755L20.3614 20.775C20.4287 20.8468 20.51 20.9039 20.6003 20.943C20.6906 20.9821 20.788 21.0023 20.8864 21.0023C20.9848 21.0023 21.0821 20.9821 21.1724 20.943C21.2627 20.9039 21.344 20.8468 21.4114 20.775C21.4831 20.7077 21.5403 20.6263 21.5794 20.536C21.6185 20.4457 21.6386 20.3484 21.6386 20.25C21.6386 20.1516 21.6185 20.0543 21.5794 19.964C21.5403 19.8737 21.4831 19.7923 21.4114 19.725ZM5.13636 10.77C5.13636 9.52631 5.50535 8.31058 6.19662 7.27669C6.88789 6.24281 7.87036 5.43725 9.01967 4.962C10.169 4.48675 11.4334 4.36316 12.653 4.60689C13.8726 4.85062 14.9925 5.45069 15.8708 6.33117C16.7492 7.21164 17.3466 8.33293 17.5874 9.55308C17.8282 10.7732 17.7016 12.0374 17.2236 13.1856C16.7456 14.3338 15.9377 15.3143 14.9022 16.0031C13.8667 16.6919 12.65 17.058 11.4064 17.055C9.74207 17.051 8.14731 16.3871 6.97188 15.2089C5.79646 14.0306 5.13635 12.4343 5.13636 10.77Z" fill="#353535"/>
</g>
</svg>
